# xmcd
#
# Track frame offsets:
#	150
#	13209
#	26886
#	43794
#	60993
#	75344
#	90878
#	107036
#	126105
#	142695
#	159708
#	172124
#	185366
#	201262
#	218082
#	233367
#	251462
#	264563
#	287396
#	301364
#	318467
#
# Disc length: 4439 seconds
#
# Revision: 0
# Processed by: cddbd v1.5.2PL0 Copyright (c) Steve Scherf et al.
# Submitted via: EZCDAudioConverter 3.1.0.1
#
DISCID=13115515
DTITLE=Nu Country Traxx Volume 211 US
DYEAR=2016
DGENRE=country
TTITLE0=Garth Brooks - Baby, Let's Lay Down And Dance
TTITLE1=Thomas Rhett - Star Of The Show
TTITLE2=Hunter Hayes - Yesterday's Song
TTITLE3=Brad Paisley - Today
TTITLE4=Blake Shelton - A Guy With A Girl
TTITLE5=Jake Owen - If He Ain't Gonna Love You
TTITLE6=Josh Abbott Band - Amnesia
TTITLE7=George Strait - Goin' Goin' Gone
TTITLE8=Micks - New Life
TTITLE9=Bobby Wills - Down By The River
TTITLE10=Justin Moore - Somebody Else Will
TTITLE11=Brooke Eden - Diamonds
TTITLE12=Tyler Farr - Our Town
TTITLE13=Luke Combs - Hurricane
TTITLE14=Jessie James Decker - Lights Down Low
TTITLE15=Boo Ray - Sea Of Lights
TTITLE16=Wayne Warner - Wasted
TTITLE17=Jennifer Nettles ft. Idina Menzel - Little Drummer Boy
TTITLE18=Jennifer Nettles ft. Andra Day - God Rest Ye Merry Gentlemen
TTITLE19=Rascal Flatts - Hark! The Herald Angels Sing
TTITLE20=Rascal Flatts - Someday At Christmas
EXTD=
EXTT0=
EXTT1=
EXTT2=
EXTT3=
EXTT4=
EXTT5=
EXTT6=
EXTT7=
EXTT8=
EXTT9=
EXTT10=
EXTT11=
EXTT12=
EXTT13=
EXTT14=
EXTT15=
EXTT16=
EXTT17=
EXTT18=
EXTT19=
EXTT20=
PLAYORDER=
